<mxfile host="app.diagrams.net" modified="2021-01-25T11:52:35.318Z" agent="5.0 (Macintosh; Intel Mac OS X 11_1_0) AppleWebKit/537.36 (KHTML, like Gecko) Chrome/88.0.4324.96 Safari/537.36" etag="h9jFkAl0XVQlEnlx4Cn1" version="14.2.7" type="github">
  <diagram id="aU8RuQrRS4-S94zxxLxV" name="第 1 页">
    <mxGraphModel dx="2233" dy="1062" grid="0" gridSize="10" guides="1" tooltips="1" connect="1" arrows="1" fold="1" page="0" pageScale="1" pageWidth="827" pageHeight="1169" math="0" shadow="0">
      <root>
        <mxCell id="0" />
        <mxCell id="1" parent="0" />
        <mxCell id="9QxIuVLbM-aO6ARUra3--2" value="入门" style="text;html=1;strokeColor=none;fillColor=none;align=center;verticalAlign=middle;whiteSpace=wrap;rounded=0;fontSize=20;" vertex="1" parent="1">
          <mxGeometry x="108.5" y="316" width="131" height="20" as="geometry" />
        </mxCell>
        <mxCell id="9QxIuVLbM-aO6ARUra3--3" value="我的第一本算法书" style="rounded=0;whiteSpace=wrap;html=1;strokeWidth=2;fontSize=18;fillColor=#fad9d5;strokeColor=none;" vertex="1" parent="1">
          <mxGeometry x="-8.5" y="363" width="163" height="44" as="geometry" />
        </mxCell>
        <mxCell id="9QxIuVLbM-aO6ARUra3--4" value="啊哈！算法" style="rounded=0;whiteSpace=wrap;html=1;strokeWidth=2;fontSize=18;fillColor=#fad9d5;strokeColor=none;" vertex="1" parent="1">
          <mxGeometry x="196" y="434" width="163" height="44" as="geometry" />
        </mxCell>
        <mxCell id="9QxIuVLbM-aO6ARUra3--6" value="算法图解" style="rounded=0;whiteSpace=wrap;html=1;strokeWidth=2;fontSize=18;fillColor=#fad9d5;strokeColor=none;" vertex="1" parent="1">
          <mxGeometry x="-8" y="434" width="163" height="44" as="geometry" />
        </mxCell>
        <mxCell id="9QxIuVLbM-aO6ARUra3--11" value="学习 JavaScript 数据结构与算法" style="rounded=0;whiteSpace=wrap;html=1;strokeWidth=2;fontSize=18;fillColor=#fad9d5;strokeColor=none;" vertex="1" parent="1">
          <mxGeometry x="31.5" y="543" width="285" height="44" as="geometry" />
        </mxCell>
        <mxCell id="9QxIuVLbM-aO6ARUra3--12" value="算法（第四版）" style="rounded=0;whiteSpace=wrap;html=1;strokeWidth=2;fontSize=18;fillColor=#fad9d5;strokeColor=none;" vertex="1" parent="1">
          <mxGeometry x="-8.5" y="627" width="163" height="44" as="geometry" />
        </mxCell>
        <mxCell id="9QxIuVLbM-aO6ARUra3--13" value="编程珠玑" style="rounded=0;whiteSpace=wrap;html=1;strokeWidth=2;fontSize=18;fillColor=#fad9d5;strokeColor=none;" vertex="1" parent="1">
          <mxGeometry x="196" y="627" width="163" height="44" as="geometry" />
        </mxCell>
        <mxCell id="9QxIuVLbM-aO6ARUra3--14" value="进阶" style="text;html=1;strokeColor=none;fillColor=none;align=center;verticalAlign=middle;whiteSpace=wrap;rounded=0;fontSize=20;" vertex="1" parent="1">
          <mxGeometry x="108.5" y="515" width="131" height="20" as="geometry" />
        </mxCell>
        <mxCell id="9QxIuVLbM-aO6ARUra3--18" value="剑指 offer" style="rounded=0;whiteSpace=wrap;html=1;strokeWidth=2;fontSize=18;fillColor=#fad9d5;strokeColor=none;" vertex="1" parent="1">
          <mxGeometry x="451" y="356" width="236" height="44" as="geometry" />
        </mxCell>
        <mxCell id="9QxIuVLbM-aO6ARUra3--19" value="面试" style="text;html=1;strokeColor=none;fillColor=none;align=center;verticalAlign=middle;whiteSpace=wrap;rounded=0;fontSize=20;" vertex="1" parent="1">
          <mxGeometry x="503.5" y="316" width="131" height="20" as="geometry" />
        </mxCell>
        <mxCell id="9QxIuVLbM-aO6ARUra3--20" value="程序员代码面试指南" style="rounded=0;whiteSpace=wrap;html=1;strokeWidth=2;fontSize=18;fillColor=#fad9d5;strokeColor=none;" vertex="1" parent="1">
          <mxGeometry x="451" y="434" width="236" height="44" as="geometry" />
        </mxCell>
        <mxCell id="9QxIuVLbM-aO6ARUra3--21" value="编程之美" style="rounded=0;whiteSpace=wrap;html=1;strokeWidth=2;fontSize=18;fillColor=#fad9d5;strokeColor=none;" vertex="1" parent="1">
          <mxGeometry x="449" y="512" width="236" height="44" as="geometry" />
        </mxCell>
        <mxCell id="9QxIuVLbM-aO6ARUra3--22" value="算法导论" style="rounded=0;whiteSpace=wrap;html=1;strokeWidth=2;fontSize=18;fillColor=#fad9d5;strokeColor=none;" vertex="1" parent="1">
          <mxGeometry x="-8" y="706" width="163" height="44" as="geometry" />
        </mxCell>
        <mxCell id="9QxIuVLbM-aO6ARUra3--23" value="大话数据结构" style="rounded=0;whiteSpace=wrap;html=1;strokeWidth=2;fontSize=18;fillColor=#fad9d5;strokeColor=none;" vertex="1" parent="1">
          <mxGeometry x="196" y="363" width="163" height="44" as="geometry" />
        </mxCell>
      </root>
    </mxGraphModel>
  </diagram>
</mxfile>
